<svg width="1024" height="1024" viewBox="0 0 1024 1024" fill="none" xmlns="http://www.w3.org/2000/svg">
<g clip-path="url(#clip0)">
<rect width="1024" height="1024" fill="#1A1A1A"/>
<path d="M260.52 880V169.062H492.941C570.09 169.062 628.033 185.013 666.77 216.914C705.832 248.815 725.363 296.016 725.363 358.516C725.363 391.719 715.923 421.178 697.043 446.895C678.163 472.285 652.447 491.979 619.895 505.977C658.306 516.719 688.579 537.227 710.715 567.5C733.176 597.448 744.406 633.255 744.406 674.922C744.406 738.724 723.736 788.854 682.395 825.312C641.053 861.771 582.622 880 507.102 880H260.52ZM354.27 547.48V803.34H509.055C552.674 803.34 587.017 792.109 612.082 769.648C637.473 746.862 650.168 715.612 650.168 675.898C650.168 590.286 603.618 547.48 510.52 547.48H354.27ZM354.27 472.285H495.871C536.887 472.285 569.602 462.031 594.016 441.523C618.755 421.016 631.125 393.184 631.125 358.027C631.125 318.965 619.732 290.645 596.945 273.066C574.159 255.163 539.491 246.211 492.941 246.211H354.27V472.285Z" fill="#F8F6F6"/>
</g>
<defs>
<clipPath id="clip0">
<rect width="1024" height="1024" fill="white"/>
</clipPath>
</defs>
</svg>
