<svg width="1024" height="1024" viewBox="0 0 1024 1024" fill="none" xmlns="http://www.w3.org/2000/svg">
<g clip-path="url(#clip0)">
<rect width="1024" height="1024" fill="#1A1A1A"/>
<path d="M762.469 654.414C753.68 729.609 725.848 787.715 678.973 828.73C632.423 869.421 570.411 889.766 492.938 889.766C408.953 889.766 341.57 859.655 290.789 799.434C240.333 739.212 215.105 658.646 215.105 557.734V489.375C215.105 423.294 226.824 365.189 250.262 315.059C274.025 264.928 307.553 226.517 350.848 199.824C394.142 172.806 444.272 159.297 501.238 159.297C576.759 159.297 637.306 180.456 682.879 222.773C728.452 264.766 754.982 323.034 762.469 397.578H668.23C660.092 340.938 642.352 299.922 615.008 274.531C587.99 249.141 550.066 236.445 501.238 236.445C441.342 236.445 394.305 258.581 360.125 302.852C326.271 347.122 309.344 410.111 309.344 491.816V560.664C309.344 637.812 325.457 699.173 357.684 744.746C389.91 790.319 434.995 813.105 492.938 813.105C545.021 813.105 584.897 801.387 612.566 777.949C640.561 754.186 659.116 713.008 668.23 654.414H762.469Z" fill="#F8F6F6"/>
</g>
<defs>
<clipPath id="clip0">
<rect width="1024" height="1024" fill="white"/>
</clipPath>
</defs>
</svg>
