<svg width="1024" height="1024" viewBox="0 0 1024 1024" fill="none" xmlns="http://www.w3.org/2000/svg">
<g clip-path="url(#clip0)">
<rect width="1024" height="1024" fill="#1A1A1A"/>
<path d="M254.52 880V169.062H455.203C517.052 169.062 571.74 182.734 619.266 210.078C666.792 237.422 703.413 276.322 729.129 326.777C755.171 377.233 768.354 435.176 768.68 500.605V546.016C768.68 613.073 755.659 671.829 729.617 722.285C703.901 772.741 666.954 811.478 618.777 838.496C570.926 865.514 515.099 879.349 451.297 880H254.52ZM348.27 246.211V803.34H446.902C519.168 803.34 575.32 780.879 615.359 735.957C655.724 691.035 675.906 627.07 675.906 544.062V502.559C675.906 421.829 656.863 359.167 618.777 314.57C581.017 269.648 527.306 246.862 457.645 246.211H348.27Z" fill="#F8F6F6"/>
</g>
<defs>
<clipPath id="clip0">
<rect width="1024" height="1024" fill="white"/>
</clipPath>
</defs>
</svg>
