<svg width="1024" height="1024" viewBox="0 0 1024 1024" fill="none" xmlns="http://www.w3.org/2000/svg">
<g clip-path="url(#clip0)">
<rect width="1024" height="1024" fill="#1A1A1A"/>
<path d="M769.422 786.738C745.333 821.243 711.642 847.122 668.348 864.375C625.379 881.302 575.249 889.766 517.957 889.766C460.014 889.766 408.582 876.257 363.66 849.238C318.738 821.895 283.908 783.158 259.168 733.027C234.754 682.897 222.221 624.792 221.57 558.711V496.699C221.57 389.603 246.473 306.595 296.277 247.676C346.408 188.757 416.72 159.297 507.215 159.297C581.434 159.297 641.167 178.34 686.414 216.426C731.661 254.186 759.331 307.897 769.422 377.559H675.672C658.094 283.483 602.104 236.445 507.703 236.445C444.878 236.445 397.189 258.581 364.637 302.852C332.41 346.797 316.134 410.599 315.809 494.258V552.363C315.809 632.116 334.038 695.592 370.496 742.793C406.954 789.668 456.271 813.105 518.445 813.105C553.602 813.105 584.363 809.199 610.73 801.387C637.098 793.574 658.908 780.391 676.16 761.836V602.168H511.609V525.996H769.422V786.738Z" fill="#F8F6F6"/>
</g>
<defs>
<clipPath id="clip0">
<rect width="1024" height="1024" fill="white"/>
</clipPath>
</defs>
</svg>
