<svg width="1024" height="1024" viewBox="0 0 1024 1024" fill="none" xmlns="http://www.w3.org/2000/svg">
<g clip-path="url(#clip0)">
<rect width="1024" height="1024" fill="#1A1A1A"/>
<path d="M611.371 169.062H705.609V672.48C705.609 740.514 685.102 793.737 644.086 832.148C603.396 870.56 549.034 889.766 481 889.766C410.362 889.766 355.349 871.699 315.961 835.566C276.573 799.434 256.879 748.815 256.879 683.711H350.629C350.629 724.401 361.697 756.139 383.832 778.926C406.293 801.712 438.682 813.105 481 813.105C519.737 813.105 550.987 800.898 574.75 776.484C598.839 752.07 611.046 717.891 611.371 673.945V169.062Z" fill="#F8F6F6"/>
</g>
<defs>
<clipPath id="clip0">
<rect width="1024" height="1024" fill="white"/>
</clipPath>
</defs>
</svg>
