<svg width="1024" height="1024" viewBox="0 0 1024 1024" fill="none" xmlns="http://www.w3.org/2000/svg">
<g clip-path="url(#clip0)">
<rect width="1024" height="1024" fill="#1A1A1A"/>
<path d="M797.395 547.48C797.395 617.142 785.676 678.014 762.238 730.098C738.801 781.855 705.598 821.406 662.629 848.75C619.66 876.094 569.53 889.766 512.238 889.766C456.249 889.766 406.607 876.094 363.312 848.75C320.018 821.081 286.327 781.855 262.238 731.074C238.475 679.967 226.268 620.885 225.617 553.828V502.559C225.617 434.199 237.499 373.815 261.262 321.406C285.025 268.997 318.553 228.958 361.848 201.289C405.467 173.294 455.272 159.297 511.262 159.297C568.228 159.297 618.358 173.132 661.652 200.801C705.272 228.145 738.801 268.021 762.238 320.43C785.676 372.513 797.395 433.223 797.395 502.559V547.48ZM704.133 501.582C704.133 417.272 687.206 352.656 653.352 307.734C619.497 262.487 572.134 239.863 511.262 239.863C452.017 239.863 405.305 262.487 371.125 307.734C337.271 352.656 319.855 415.156 318.879 495.234V547.48C318.879 629.186 335.969 693.477 370.148 740.352C404.654 786.901 452.017 810.176 512.238 810.176C572.785 810.176 619.66 788.203 652.863 744.258C686.066 699.987 703.156 636.673 704.133 554.316V501.582Z" fill="#F8F6F6"/>
</g>
<defs>
<clipPath id="clip0">
<rect width="1024" height="1024" fill="white"/>
</clipPath>
</defs>
</svg>
