<svg width="1024" height="1024" viewBox="0 0 1024 1024" fill="none" xmlns="http://www.w3.org/2000/svg">
<g clip-path="url(#clip0)">
<rect width="1024" height="1024" fill="#1A1A1A"/>
<path d="M372.27 601.68V880H278.52V169.062H540.727C618.526 169.062 679.398 188.919 723.344 228.633C767.615 268.346 789.75 320.918 789.75 386.348C789.75 455.358 768.103 508.581 724.809 546.016C681.84 583.125 620.154 601.68 539.75 601.68H372.27ZM372.27 525.02H540.727C590.857 525.02 629.268 513.301 655.961 489.863C682.654 466.1 696 431.921 696 387.324C696 345.007 682.654 311.152 655.961 285.762C629.268 260.371 592.647 247.188 546.098 246.211H372.27V525.02Z" fill="#F8F6F6"/>
</g>
<defs>
<clipPath id="clip0">
<rect width="1024" height="1024" fill="white"/>
</clipPath>
</defs>
</svg>
