<svg width="1024" height="1024" viewBox="0 0 1024 1024" fill="none" xmlns="http://www.w3.org/2000/svg">
<g clip-path="url(#clip0)">
<rect width="1024" height="1024" fill="#1A1A1A"/>
<path d="M793.488 547.48C793.488 616.165 782.583 675.41 760.773 725.215C738.964 774.694 708.365 813.431 668.977 841.426L795.93 941.035L731.965 1000.12L582.062 880.977C558.625 886.836 533.885 889.766 507.844 889.766C451.854 889.766 402.212 876.094 358.918 848.75C315.624 821.081 281.932 781.855 257.844 731.074C234.081 679.967 221.874 620.885 221.223 553.828V502.559C221.223 434.199 233.104 373.815 256.867 321.406C280.63 268.997 314.159 228.958 357.453 201.289C401.073 173.294 450.878 159.297 506.867 159.297C564.159 159.297 614.452 173.132 657.746 200.801C701.366 228.47 734.895 268.346 758.332 320.43C781.77 372.188 793.488 432.734 793.488 502.07V547.48ZM699.738 501.582C699.738 417.923 682.974 353.47 649.445 308.223C616.242 262.65 568.716 239.863 506.867 239.863C447.948 239.863 401.398 262.487 367.219 307.734C333.365 352.656 315.949 415.156 314.973 495.234V547.48C314.973 628.861 331.9 692.988 365.754 739.863C399.934 786.738 447.297 810.176 507.844 810.176C568.391 810.176 615.266 788.203 648.469 744.258C681.672 699.987 698.762 636.673 699.738 554.316V501.582Z" fill="#F8F6F6"/>
</g>
<defs>
<clipPath id="clip0">
<rect width="1024" height="1024" fill="white"/>
</clipPath>
</defs>
</svg>
