<svg width="1024" height="1024" viewBox="0 0 1024 1024" fill="none" xmlns="http://www.w3.org/2000/svg">
<g clip-path="url(#clip0)">
<rect width="1024" height="1024" fill="#1A1A1A"/>
<path d="M494.262 592.402H327.27V880H233.031V169.062H468.383C548.461 169.062 609.984 187.292 652.953 223.75C696.247 260.208 717.895 313.268 717.895 382.93C717.895 427.201 705.85 465.775 681.762 498.652C657.999 531.53 624.796 556.107 582.152 572.383L749.145 874.141V880H648.559L494.262 592.402ZM327.27 515.742H471.312C517.862 515.742 554.809 503.698 582.152 479.609C609.822 455.521 623.656 423.294 623.656 382.93C623.656 338.984 610.473 305.293 584.105 281.855C558.064 258.418 520.303 246.536 470.824 246.211H327.27V515.742Z" fill="#F8F6F6"/>
</g>
<defs>
<clipPath id="clip0">
<rect width="1024" height="1024" fill="white"/>
</clipPath>
</defs>
</svg>
