<svg width="1024" height="1024" viewBox="0 0 1024 1024" fill="none" xmlns="http://www.w3.org/2000/svg">
<g clip-path="url(#clip0)">
<rect width="1024" height="1024" fill="#1A1A1A"/>
<path d="M506.992 588.105C426.589 564.993 367.995 536.673 331.211 503.145C294.753 469.29 276.523 427.624 276.523 378.145C276.523 322.155 298.822 275.931 343.418 239.473C388.34 202.689 446.608 184.297 518.223 184.297C567.051 184.297 610.508 193.737 648.594 212.617C687.005 231.497 716.628 257.539 737.461 290.742C758.62 323.945 769.199 360.241 769.199 399.629H674.961C674.961 356.66 661.289 322.969 633.945 298.555C606.602 273.815 568.027 261.445 518.223 261.445C471.999 261.445 435.866 271.699 409.824 292.207C384.108 312.389 371.25 340.547 371.25 376.68C371.25 405.651 383.457 430.228 407.871 450.41C432.611 470.267 474.44 488.496 533.359 505.098C592.604 521.699 638.828 540.091 672.031 560.273C705.56 580.13 730.299 603.405 746.25 630.098C762.526 656.79 770.664 688.203 770.664 724.336C770.664 781.953 748.203 828.177 703.281 863.008C658.359 897.513 598.301 914.766 523.105 914.766C474.277 914.766 428.704 905.488 386.387 886.934C344.069 868.053 311.354 842.337 288.242 809.785C265.456 777.233 254.062 740.286 254.062 698.945H348.301C348.301 741.914 364.089 775.931 395.664 800.996C427.565 825.736 470.046 838.105 523.105 838.105C572.585 838.105 610.508 828.014 636.875 807.832C663.242 787.65 676.426 760.143 676.426 725.312C676.426 690.482 664.219 663.626 639.805 644.746C615.391 625.54 571.12 606.66 506.992 588.105Z" fill="#F8F6F6"/>
</g>
<defs>
<clipPath id="clip0">
<rect width="1024" height="1024" fill="white"/>
</clipPath>
</defs>
</svg>
