<svg width="1024" height="1024" viewBox="0 0 1024 1024" fill="none" xmlns="http://www.w3.org/2000/svg">
<g clip-path="url(#clip0)">
<rect width="1024" height="1024" fill="#1A1A1A"/>
<path d="M770.008 179.062V662.461C769.682 729.518 748.523 784.368 706.531 827.012C664.865 869.655 608.224 893.581 536.609 898.789L511.707 899.766C433.908 899.766 371.896 878.77 325.672 836.777C279.448 794.785 256.01 737.005 255.359 663.438V179.062H348.133V660.508C348.133 711.94 362.293 751.979 390.613 780.625C418.934 808.945 459.298 823.105 511.707 823.105C564.767 823.105 605.294 808.945 633.289 780.625C661.609 752.305 675.77 712.428 675.77 660.996V179.062H770.008Z" fill="#F8F6F6"/>
</g>
<defs>
<clipPath id="clip0">
<rect width="1024" height="1024" fill="white"/>
</clipPath>
</defs>
</svg>
