<?xml version="1.0" encoding="utf-8"?>
<!-- Generator: Adobe Illustrator 25.2.3, SVG Export Plug-In . SVG Version: 6.00 Build 0)  -->
<svg version="1.1" id="Layer_1" xmlns="http://www.w3.org/2000/svg" xmlns:xlink="http://www.w3.org/1999/xlink" x="0px" y="0px"
	 viewBox="0 0 1024 1024" style="enable-background:new 0 0 1024 1024;" xml:space="preserve">
<style type="text/css">
	.st0{clip-path:url(#SVGID_2_);}
	.st1{fill:#1A1A1A;}
	.st2{fill:#F8F6F6;}
</style>
<g>
	<defs>
		<rect id="SVGID_1_" width="1024" height="1024"/>
	</defs>
	<clipPath id="SVGID_2_">
		<use xlink:href="#SVGID_1_"  style="overflow:visible;"/>
	</clipPath>
	<g class="st0">
		<rect class="st1" width="1024" height="1024"/>
		<path class="st2" d="M735.9,576.8c0,105.8-18.1,184.4-54.2,235.8c-36.1,51.4-92.6,77.1-169.4,77.1c-75.8,0-132-25.1-168.5-75.2
			c-36.5-50.5-55.3-125.7-56.6-225.6V468.4c0-104.5,18.1-182.1,54.2-232.9c36.1-50.8,92.8-76.2,169.9-76.2
			c76.5,0,132.8,24.6,168.9,73.7c36.1,48.8,54.7,124.3,55.7,226.6V576.8z M645.6,453.2c0-76.5-10.7-132.2-32.2-167
			c-21.5-35.2-55.5-52.7-102.1-52.7c-46.2,0-79.9,17.4-101.1,52.2c-21.2,34.8-32.1,88.4-32.7,160.6v144.5
			c0,76.8,11.1,133.6,33.2,170.4C433.1,797.8,467,816,512.2,816c44.6,0,77.6-17.3,99.1-51.8c21.8-34.5,33.2-88.9,34.2-163.1V453.2z"
			/>
	</g>
</g>
</svg>
