<svg width="1024" height="1024" viewBox="0 0 1024 1024" fill="none" xmlns="http://www.w3.org/2000/svg">
<g clip-path="url(#clip0)">
<rect width="1024" height="1024" fill="#1A1A1A"/>
<path d="M735.883 576.777C735.883 682.572 717.816 761.185 681.684 812.617C645.551 864.049 589.073 889.766 512.25 889.766C436.404 889.766 380.251 864.701 343.793 814.57C307.335 764.115 288.454 688.919 287.152 588.984V468.379C287.152 363.887 305.219 286.25 341.352 235.469C377.484 184.688 434.125 159.297 511.273 159.297C587.771 159.297 644.086 183.874 680.219 233.027C716.352 281.855 734.906 357.376 735.883 459.59V576.777ZM645.551 453.242C645.551 376.745 634.809 321.081 613.324 286.25C591.84 251.094 557.823 233.516 511.273 233.516C465.049 233.516 431.358 250.931 410.199 285.762C389.04 320.592 378.135 374.141 377.484 446.406V590.938C377.484 667.76 388.552 724.564 410.688 761.348C433.148 797.806 467.003 816.035 512.25 816.035C556.846 816.035 589.887 798.783 611.371 764.277C633.181 729.772 644.574 675.41 645.551 601.191V453.242Z" fill="#F8F6F6"/>
</g>
<defs>
<clipPath id="clip0">
<rect width="1024" height="1024" fill="white"/>
</clipPath>
</defs>
</svg>
