<svg width="1024" height="1024" viewBox="0 0 1024 1024" fill="none" xmlns="http://www.w3.org/2000/svg">
<g clip-path="url(#clip0)">
<rect width="1024" height="1024" fill="#1A1A1A"/>
<path d="M755.902 880H290.082V815.059L536.176 541.621C572.634 500.28 597.699 466.751 611.371 441.035C625.368 414.993 632.367 388.138 632.367 360.469C632.367 323.359 621.137 292.923 598.676 269.16C576.215 245.397 546.267 233.516 508.832 233.516C463.91 233.516 428.917 246.374 403.852 272.09C379.112 297.48 366.742 332.962 366.742 378.535H276.41C276.41 313.105 297.406 260.208 339.398 219.844C381.716 179.479 438.194 159.297 508.832 159.297C574.913 159.297 627.159 176.712 665.57 211.543C703.982 246.048 723.188 292.109 723.188 349.727C723.188 419.714 678.591 503.047 589.398 599.727L398.969 806.27H755.902V880Z" fill="#F8F6F6"/>
</g>
<defs>
<clipPath id="clip0">
<rect width="1024" height="1024" fill="white"/>
</clipPath>
</defs>
</svg>
