<svg width="1024" height="1024" viewBox="0 0 1024 1024" fill="none" xmlns="http://www.w3.org/2000/svg">
<g clip-path="url(#clip0)">
<rect width="1024" height="1024" fill="#1A1A1A"/>
<path d="M421.43 480.586H489.301C531.944 479.935 565.473 468.704 589.887 446.895C614.301 425.085 626.508 395.625 626.508 358.516C626.508 275.182 585.004 233.516 501.996 233.516C462.934 233.516 431.684 244.746 408.246 267.207C385.134 289.342 373.578 318.802 373.578 355.586H283.246C283.246 299.271 303.754 252.559 344.77 215.449C386.111 178.014 438.52 159.297 501.996 159.297C569.053 159.297 621.625 177.038 659.711 212.52C697.797 248.001 716.84 297.318 716.84 360.469C716.84 391.393 706.749 421.341 686.566 450.312C666.71 479.284 639.529 500.931 605.023 515.254C644.086 527.624 674.197 548.132 695.355 576.777C716.84 605.423 727.582 640.417 727.582 681.758C727.582 745.56 706.749 796.178 665.082 833.613C623.415 871.048 569.216 889.766 502.484 889.766C435.753 889.766 381.391 871.699 339.398 835.566C297.732 799.434 276.898 751.745 276.898 692.5H367.719C367.719 729.935 379.926 759.883 404.34 782.344C428.754 804.805 461.469 816.035 502.484 816.035C546.104 816.035 579.47 804.642 602.582 781.855C625.694 759.069 637.25 726.354 637.25 683.711C637.25 642.37 624.555 610.632 599.164 588.496C573.773 566.361 537.152 554.967 489.301 554.316H421.43V480.586Z" fill="#F8F6F6"/>
</g>
<defs>
<clipPath id="clip0">
<rect width="1024" height="1024" fill="white"/>
</clipPath>
</defs>
</svg>
