<svg width="1024" height="1024" viewBox="0 0 1024 1024" fill="none" xmlns="http://www.w3.org/2000/svg">
<g clip-path="url(#clip0)">
<rect width="1024" height="1024" fill="#1A1A1A"/>
<path d="M331.586 523.555L367.719 169.062H731.977V252.559H444.379L422.895 446.406C457.725 425.898 497.276 415.645 541.547 415.645C606.326 415.645 657.758 437.129 695.844 480.098C733.93 522.741 752.973 580.521 752.973 653.438C752.973 726.68 733.116 784.46 693.402 826.777C654.014 868.77 598.839 889.766 527.875 889.766C465.049 889.766 413.78 872.35 374.066 837.52C334.353 802.689 311.729 754.512 306.195 692.988H391.645C397.178 733.678 411.664 764.44 435.102 785.273C458.539 805.781 489.464 816.035 527.875 816.035C569.867 816.035 602.745 801.712 626.508 773.066C650.596 744.421 662.641 704.87 662.641 654.414C662.641 606.888 649.62 568.802 623.578 540.156C597.862 511.185 563.52 496.699 520.551 496.699C481.163 496.699 450.238 505.326 427.777 522.578L403.852 542.109L331.586 523.555Z" fill="#F8F6F6"/>
</g>
<defs>
<clipPath id="clip0">
<rect width="1024" height="1024" fill="white"/>
</clipPath>
</defs>
</svg>
