<svg width="1024" height="1024" viewBox="0 0 1024 1024" fill="none" xmlns="http://www.w3.org/2000/svg">
<g clip-path="url(#clip0)">
<rect width="1024" height="1024" fill="#1A1A1A"/>
<path d="M644.574 168.574V245.234H627.973C557.66 246.536 501.671 267.37 460.004 307.734C418.337 348.099 394.249 404.902 387.738 478.145C425.173 435.176 476.28 413.691 541.059 413.691C602.908 413.691 652.224 435.501 689.008 479.121C726.117 522.741 744.672 579.056 744.672 648.066C744.672 721.309 724.652 779.902 684.613 823.848C644.9 867.793 591.514 889.766 524.457 889.766C456.423 889.766 401.247 863.724 358.93 811.641C316.612 759.232 295.453 691.849 295.453 609.492V574.824C295.453 443.965 323.285 344.03 378.949 275.02C434.939 205.684 518.109 170.202 628.461 168.574H644.574ZM525.922 488.887C494.997 488.887 466.514 498.164 440.473 516.719C414.431 535.273 396.365 558.548 386.273 586.543V619.746C386.273 678.34 399.457 725.54 425.824 761.348C452.191 797.155 485.069 815.059 524.457 815.059C565.147 815.059 597.048 800.085 620.16 770.137C643.598 740.189 655.316 700.964 655.316 652.461C655.316 603.633 643.435 564.245 619.672 534.297C596.234 504.023 564.984 488.887 525.922 488.887Z" fill="#F8F6F6"/>
</g>
<defs>
<clipPath id="clip0">
<rect width="1024" height="1024" fill="white"/>
</clipPath>
</defs>
</svg>
