<svg width="1024" height="1024" viewBox="0 0 1024 1024" fill="none" xmlns="http://www.w3.org/2000/svg">
<g clip-path="url(#clip0)">
<rect width="1024" height="1024" fill="#1A1A1A"/>
<path d="M721.234 354.609C721.234 390.091 711.794 421.667 692.914 449.336C674.359 477.005 649.132 498.652 617.23 514.277C654.34 530.228 683.637 553.503 705.121 584.102C726.931 614.701 737.836 649.368 737.836 688.105C737.836 749.629 717.003 798.62 675.336 835.078C633.995 871.536 579.47 889.766 511.762 889.766C443.402 889.766 388.552 871.536 347.211 835.078C306.195 798.294 285.688 749.303 285.688 688.105C285.688 649.694 296.104 615.026 316.938 584.102C338.096 553.177 367.23 529.74 404.34 513.789C372.764 498.164 347.862 476.517 329.633 448.848C311.404 421.178 302.289 389.766 302.289 354.609C302.289 294.714 321.495 247.188 359.906 212.031C398.318 176.875 448.936 159.297 511.762 159.297C574.262 159.297 624.717 176.875 663.129 212.031C701.866 247.188 721.234 294.714 721.234 354.609ZM647.504 686.152C647.504 646.439 634.809 614.049 609.418 588.984C584.353 563.919 551.475 551.387 510.785 551.387C470.095 551.387 437.38 563.757 412.641 588.496C388.227 613.236 376.02 645.788 376.02 686.152C376.02 726.517 387.901 758.255 411.664 781.367C435.753 804.479 469.118 816.035 511.762 816.035C554.079 816.035 587.283 804.479 611.371 781.367C635.46 757.93 647.504 726.191 647.504 686.152ZM511.762 233.516C476.28 233.516 447.471 244.583 425.336 266.719C403.526 288.529 392.621 318.314 392.621 356.074C392.621 392.207 403.363 421.504 424.848 443.965C446.658 466.1 475.629 477.168 511.762 477.168C547.895 477.168 576.703 466.1 598.188 443.965C619.997 421.504 630.902 392.207 630.902 356.074C630.902 319.941 619.672 290.482 597.211 267.695C574.75 244.909 546.267 233.516 511.762 233.516Z" fill="#F8F6F6"/>
</g>
<defs>
<clipPath id="clip0">
<rect width="1024" height="1024" fill="white"/>
</clipPath>
</defs>
</svg>
