<svg width="1024" height="1024" viewBox="0 0 1024 1024" fill="none" xmlns="http://www.w3.org/2000/svg">
<g clip-path="url(#clip0)">
<rect width="1024" height="1024" fill="#1A1A1A"/>
<path d="M636.273 567.5C617.393 589.961 594.77 608.027 568.402 621.699C542.361 635.371 513.715 642.207 482.465 642.207C441.449 642.207 405.642 632.116 375.043 611.934C344.77 591.751 321.332 563.431 304.73 526.973C288.129 490.189 279.828 449.661 279.828 405.391C279.828 357.865 288.78 315.059 306.684 276.973C324.913 238.887 350.629 209.753 383.832 189.57C417.035 169.388 455.772 159.297 500.043 159.297C570.355 159.297 625.694 185.664 666.059 238.398C706.749 290.807 727.094 362.422 727.094 453.242V479.609C727.094 617.956 699.75 719.03 645.062 782.832C590.375 846.309 507.855 878.861 397.504 880.488H379.926V804.316H398.969C473.513 803.014 530.805 783.646 570.844 746.211C610.883 708.451 632.693 648.88 636.273 567.5ZM497.113 567.5C527.387 567.5 555.219 558.223 580.609 539.668C606.326 521.113 625.043 498.164 636.762 470.82V434.688C636.762 375.443 623.904 327.266 598.188 290.156C572.471 253.047 539.919 234.492 500.531 234.492C460.818 234.492 428.917 249.792 404.828 280.391C380.74 310.664 368.695 350.703 368.695 400.508C368.695 449.01 380.251 489.049 403.363 520.625C426.801 551.875 458.051 567.5 497.113 567.5Z" fill="#F8F6F6"/>
</g>
<defs>
<clipPath id="clip0">
<rect width="1024" height="1024" fill="white"/>
</clipPath>
</defs>
</svg>
